<svg viewBox="0 0 40 40" fill="none" xmlns="http://www.w3.org/2000/svg">
  <circle cx="20" cy="20" r="20" fill="white" fill-opacity="0.06"/>
  <circle cx="20" cy="20" r="2.8125" fill="white" fill-opacity="0.48"/>
  <circle cx="7.1875" cy="20" r="2.8125" fill="white" fill-opacity="0.48"/>
  <circle cx="32.6562" cy="20" r="2.8125" fill="white" fill-opacity="0.48"/>
  <circle cx="20" cy="5.3125" r="2.8125" fill="white" fill-opacity="0.48"/>
  <circle cx="20" cy="34.6875" r="2.8125" fill="white" fill-opacity="0.48"/>
  <circle cx="20" cy="12.6562" r="2.8125" fill="white" fill-opacity="0.48"/>
  <circle cx="20" cy="27.3438" r="2.8125" fill="white" fill-opacity="0.48"/>
  <circle cx="7.1875" cy="12.6562" r="2.8125" fill="white" fill-opacity="0.48"/>
  <circle cx="7.1875" cy="27.3438" r="2.8125" fill="white" fill-opacity="0.48"/>
  <circle cx="32.6562" cy="12.6562" r="2.8125" fill="white" fill-opacity="0.48"/>
  <circle cx="32.6562" cy="27.3438" r="2.8125" fill="white" fill-opacity="0.48"/>
  <circle cx="26.4062" cy="23.75" r="2.8125" fill="white" fill-opacity="0.48"/>
  <circle cx="26.4062" cy="9.0625" r="2.8125" fill="white" fill-opacity="0.48"/>
  <circle cx="26.4062" cy="16.4062" r="2.8125" fill="white" fill-opacity="0.48"/>
  <circle cx="26.4062" cy="31.0938" r="2.8125" fill="white" fill-opacity="0.48"/>
  <circle cx="13.5938" cy="23.75" r="2.8125" fill="white" fill-opacity="0.48"/>
  <circle cx="13.5938" cy="9.0625" r="2.8125" fill="white" fill-opacity="0.48"/>
  <circle cx="13.5938" cy="16.4062" r="2.8125" fill="white" fill-opacity="0.48"/>
  <circle cx="13.5938" cy="31.0938" r="2.8125" fill="white" fill-opacity="0.48"/>
  </svg>
  