<svg width="151" height="32" viewBox="0 0 151 32" fill="none" xmlns="http://www.w3.org/2000/svg">
  <path
    d="M48.0101 4.77344C46.2647 4.77344 44.5816 4.9924 43.8958 5.18005C42.8986 5.4614 42.6491 5.8991 42.462 6.8058L38.5038 25.1286C38.4413 25.5039 38.3789 25.8166 38.3789 26.1292C38.3789 27.0368 38.9713 27.63 39.9373 27.63C40.9972 27.63 41.4335 26.9422 41.6518 25.8792L42.7737 20.6575C43.5529 20.7512 44.5816 20.8449 46.0466 20.8449C52.4986 20.8449 56.519 17.3431 56.519 12.0588C56.5193 7.43114 53.3088 4.77344 48.0101 4.77344ZM45.8908 17.843C44.8933 17.843 44.1141 17.8119 43.3971 17.718L45.4855 7.99386C46.14 7.89992 47.1063 7.7749 48.1038 7.7749C51.5323 7.7749 53.2778 9.40088 53.2778 12.0899C53.2778 15.5295 50.7843 17.8432 45.8899 17.8432L45.8908 17.843Z"
    fill="black" />
  <path
    d="M149.555 21.595C149.025 21.595 148.682 21.9077 148.028 22.6268C146.874 23.8151 146.158 24.4715 145.254 24.4715C144.443 24.4715 144.007 23.8151 144.007 22.7518C144.007 22.1578 144.132 21.4387 144.287 20.657L145.441 15.2164H148.902C149.993 15.2164 150.647 14.591 150.647 13.4654C150.647 12.84 150.242 12.371 149.307 12.371H146.064L146.625 9.83835C146.687 9.46328 146.75 9.11929 146.75 8.80662C146.75 7.93101 146.158 7.30566 145.191 7.30566C144.163 7.30566 143.695 7.99363 143.477 9.05667L142.76 12.371H141.295C140.173 12.371 139.519 12.9964 139.519 14.122C139.519 14.7474 139.955 15.2164 140.89 15.2164H142.168L141.014 20.594C140.89 21.188 140.734 22.1573 140.734 23.158C140.734 25.6906 142.043 27.5353 144.848 27.5353C146.469 27.5353 147.903 26.7224 148.994 25.753C150.053 24.815 150.833 23.6583 150.833 22.9077C150.833 22.1891 150.272 21.595 149.555 21.595Z"
    fill="black" />
  <path
    d="M77.8675 6.61814C77.8675 5.71054 77.2442 5.11719 76.2779 5.11719C75.2494 5.11719 74.7819 5.80516 74.5636 6.86819L70.6676 25.0346C70.5739 25.4099 70.5117 25.7226 70.5117 26.0353C70.5117 26.9429 71.1351 27.536 72.0701 27.536C73.1298 27.536 73.5974 26.848 73.8156 25.785L77.7124 7.61856C77.7741 7.24349 77.8675 6.93082 77.8675 6.61814Z"
    fill="black" />
  <path
    d="M133.504 12.0586C128.517 12.0586 125.119 17.0302 125.119 21.7516C125.119 21.8401 125.121 21.9275 125.124 22.0146C124.342 23.2058 123.343 24.4406 122.657 24.4406C122.158 24.4406 121.971 23.9716 121.971 23.2523C121.971 22.3769 122.22 20.9073 122.501 19.6253L125.088 7.61856C125.15 7.24349 125.213 6.93082 125.213 6.61815C125.213 5.71054 124.621 5.11719 123.654 5.11719C122.595 5.11719 122.158 5.80516 121.94 6.86819L120.538 13.3719C119.789 12.5902 118.697 12.0586 117.046 12.0586C113.734 12.0586 110.403 14.6164 109.105 18.5389C107.675 22.2469 106.397 24.4406 105.389 24.4406C105.015 24.4406 104.797 24.128 104.797 23.5963C104.797 22.033 105.67 18.2187 106.044 16.3736C106.169 15.6856 106.231 15.4042 106.231 14.9976C106.231 13.6219 103.956 11.996 100.995 11.996C97.5708 11.996 94.4695 14.171 92.9143 17.4042C90.6051 21.4979 88.4858 24.4413 87.4365 24.4413C86.969 24.4413 86.8131 23.847 86.6885 23.2841L85.9093 18.9691L90.6782 15.0607C91.1145 14.6854 91.6754 14.1531 91.6754 13.466C91.6754 12.622 91.1145 12.0593 90.2731 12.0593C89.6497 12.0593 89.1195 12.4346 88.59 12.8722L81.422 18.8123L83.822 7.61856C83.8845 7.24349 83.9779 6.93082 83.9779 6.61815C83.9779 5.71054 83.3545 5.11719 82.3882 5.11719C81.3598 5.11719 80.8922 5.80516 80.674 6.86819L76.7779 25.0347C76.6845 25.4099 76.6221 25.7226 76.6221 26.0353C76.6221 26.9429 77.2454 27.536 78.1805 27.536C79.2402 27.536 79.7077 26.8481 79.926 25.785L80.4247 23.44L83.3545 21.0636L84.0715 24.6907C84.352 26.129 85.1 27.536 87.0325 27.536C88.9551 27.536 90.4674 25.7746 91.9826 23.3946C92.4424 25.8873 94.2101 27.536 96.6635 27.536C99.1258 27.536 100.809 26.0664 101.9 24.0966V24.159C101.9 26.1916 102.928 27.536 104.736 27.536C106.371 27.536 107.728 26.5474 108.941 24.4454C109.629 26.2772 111.166 27.536 113.307 27.536C115.831 27.536 117.639 26.004 118.792 23.8777V24.0653C118.792 26.3166 119.914 27.5369 121.753 27.5369C123.377 27.5369 124.757 26.5917 125.935 25.0517C126.83 26.5901 128.436 27.5369 130.605 27.5369C135.592 27.5369 138.99 22.5655 138.99 17.8128C138.989 14.4662 136.963 12.0586 133.504 12.0586ZM102.429 18.4057C101.524 22.3141 99.5922 24.5341 97.4104 24.5341C95.9454 24.5341 95.135 23.4084 95.135 21.7205C95.135 18.4062 97.535 14.8415 100.744 14.8415C101.71 14.8415 102.459 15.1231 103.113 15.5295L102.429 18.4057ZM119.789 16.7493C118.792 21.3457 116.517 24.535 114.023 24.535C112.652 24.535 111.841 23.472 111.841 21.7214C111.841 18.3758 114.148 14.9051 117.234 14.9051C118.418 14.9051 119.322 15.3114 119.976 15.8431L119.789 16.7493ZM130.979 24.5343C129.172 24.5343 128.423 23.221 128.423 21.564C128.423 18.531 130.512 15.0603 133.13 15.0603C134.938 15.0603 135.686 16.3736 135.686 18.0306C135.685 21.095 133.597 24.5343 130.979 24.5343Z"
    fill="black" />
  <path
    d="M64.281 12.0586C59.2938 12.0586 55.8965 17.0302 55.8965 21.7516C55.8965 25.1284 57.9224 27.536 61.3822 27.536C66.3691 27.536 69.7667 22.5646 69.7667 17.8119C69.7667 14.4663 67.7403 12.0586 64.281 12.0586ZM61.7563 24.5343C59.9484 24.5343 59.2004 23.221 59.2004 21.564C59.2004 18.531 61.2888 15.0603 63.9069 15.0603C65.7148 15.0603 66.4628 16.3736 66.4628 18.0307C66.4628 21.095 64.3744 24.5343 61.7563 24.5343Z"
    fill="black" />
  <path
    d="M16.6887 6.71403C19.8651 6.71403 22.44 5.21104 22.44 3.35702C22.44 1.50299 19.8651 0 16.6887 0C13.5124 0 10.9375 1.50299 10.9375 3.35702C10.9375 5.21104 13.5124 6.71403 16.6887 6.71403Z"
    fill="#E6007A" />
  <path
    d="M16.6887 32.0002C19.8651 32.0002 22.44 30.4972 22.44 28.6431C22.44 26.7891 19.8651 25.2861 16.6887 25.2861C13.5124 25.2861 10.9375 26.7891 10.9375 28.6431C10.9375 30.4972 13.5124 32.0002 16.6887 32.0002Z"
    fill="#E6007A" />
  <path
    d="M8.6718 11.3576C10.26 8.59813 10.2499 5.60963 8.64933 4.68262C7.04876 3.75561 4.46378 5.24111 2.87562 8.00059C1.28746 10.7601 1.29752 13.7486 2.89809 14.6756C4.49866 15.6026 7.08364 14.1171 8.6718 11.3576Z"
    fill="#E6007A" />
  <path
    d="M30.5019 23.9992C32.09 21.2397 32.08 18.2512 30.4794 17.3242C28.8788 16.3972 26.2939 17.8827 24.7057 20.6422C23.1175 23.4017 23.1276 26.3902 24.7282 27.3172C26.3287 28.2442 28.9137 26.7587 30.5019 23.9992Z"
    fill="#E6007A" />
  <path
    d="M8.64933 27.3174C10.2499 26.3904 10.26 23.4019 8.6718 20.6424C7.08364 17.8829 4.49866 16.3974 2.89809 17.3244C1.29752 18.2514 1.28746 21.2399 2.87562 23.9994C4.46378 26.7589 7.04875 28.2444 8.64933 27.3174Z"
    fill="#E6007A" />
  <path
    d="M30.4794 14.6748C32.08 13.7478 32.09 10.7593 30.5019 7.99982C28.9137 5.24034 26.3287 3.75483 24.7282 4.68184C23.1276 5.60886 23.1175 8.59735 24.7057 11.3568C26.2939 14.1163 28.8788 15.6018 30.4794 14.6748Z"
    fill="#E6007A" />
</svg>