<svg viewBox="0 0 34 32" fill="none" xmlns="http://www.w3.org/2000/svg">
  <path
    d="M16.6887 6.71396C19.865 6.71396 22.4399 5.21099 22.4399 3.35698C22.4399 1.50297 19.865 0 16.6887 0C13.5124 0 10.9375 1.50297 10.9375 3.35698C10.9375 5.21099 13.5124 6.71396 16.6887 6.71396Z"
    fill="#E6007A" />
  <path
    d="M16.6887 31.9996C19.865 31.9996 22.4399 30.4966 22.4399 28.6426C22.4399 26.7886 19.865 25.2856 16.6887 25.2856C13.5124 25.2856 10.9375 26.7886 10.9375 28.6426C10.9375 30.4966 13.5124 31.9996 16.6887 31.9996Z"
    fill="#E6007A" />
  <path
    d="M8.6717 11.3571C10.2598 8.59769 10.2498 5.60922 8.64923 4.68222C7.04868 3.75522 4.46373 5.24071 2.87559 8.00016C1.28744 10.7596 1.29751 13.7481 2.89806 14.6751C4.49861 15.6021 7.08356 14.1166 8.6717 11.3571Z"
    fill="#E6007A" />
  <path
    d="M30.5008 23.9992C32.089 21.2398 32.0789 18.2513 30.4783 17.3243C28.8778 16.3973 26.2928 17.8828 24.7047 20.6422C23.1165 23.4017 23.1266 26.3902 24.7272 27.3172C26.3277 28.2442 28.9127 26.7587 30.5008 23.9992Z"
    fill="#E6007A" />
  <path
    d="M8.64923 27.3168C10.2498 26.3898 10.2598 23.4013 8.67171 20.6419C7.08356 17.8824 4.49861 16.3969 2.89806 17.324C1.2975 18.251 1.28745 21.2394 2.87559 23.9989C4.46373 26.7583 7.04868 28.2438 8.64923 27.3168Z"
    fill="#E6007A" />
  <path
    d="M30.4783 14.6752C32.0789 13.7482 32.089 10.7597 30.5008 8.00029C28.9127 5.24084 26.3277 3.75534 24.7272 4.68235C23.1266 5.60935 23.1165 8.59782 24.7047 11.3573C26.2928 14.1167 28.8778 15.6022 30.4783 14.6752Z"
    fill="#E6007A" />
</svg>