<svg viewBox="0 0 32 32" fill="none" xmlns="http://www.w3.org/2000/svg">
  <g clip-path="url(#clip0_36_297)">
    <path
      d="M16 32C24.8366 32 32 24.8366 32 16C32 7.16344 24.8366 0 16 0C7.16344 0 0 7.16344 0 16C0 24.8366 7.16344 32 16 32Z"
      fill="black" />
    <path
      d="M26.84 21.87V10.13C26.84 9.88996 26.71 9.65996 26.5 9.53996L16.34 3.66996C16.13 3.54996 15.87 3.54996 15.66 3.66996L5.49002 9.53996C5.28002 9.65996 5.15002 9.88996 5.15002 10.13V21.87C5.15002 22.11 5.28002 22.34 5.49002 22.46L15.66 28.33C15.87 28.45 16.13 28.45 16.34 28.33L26.5 22.46C26.71 22.34 26.84 22.11 26.84 21.87Z"
      stroke="white" stroke-width="1.5" stroke-miterlimit="10" />
    <path
      d="M22.25 14.35V17.9C22.25 20.21 19.45 21.81 16 21.81C12.55 21.81 9.73999 20.21 9.73999 17.9V14.35C9.73999 16.65 12.54 18.52 16 18.52C19.46 18.52 22.25 16.65 22.25 14.35Z"
      fill="white" />
    <path
      d="M22.25 14.35V17.9C22.25 20.21 19.45 21.81 16 21.81C12.55 21.81 9.73999 20.21 9.73999 17.9V14.35"
      stroke="white" stroke-width="1.5" stroke-miterlimit="10" />
    <path
      d="M9.73999 14.3501C9.73999 16.6501 12.54 18.5201 16 18.5201C19.46 18.5201 22.25 16.6501 22.25 14.3501C22.25 12.0501 19.45 10.1801 16 10.1801C12.55 10.1801 9.73999 12.0401 9.73999 14.3501Z"
      stroke="white" stroke-width="1.5" stroke-miterlimit="10" />
  </g>
  <defs>
    <clipPath id="clip0_36_297">
      <rect width="32" height="32" fill="white" />
    </clipPath>
  </defs>
</svg>
  